<?xml version="1.0" encoding="utf-8"?>
<!-- Generator: Adobe Illustrator 27.5.0, SVG Export Plug-In . SVG Version: 6.00 Build 0)  -->
<svg version="1.1" id="Layer_1" xmlns="http://www.w3.org/2000/svg" xmlns:xlink="http://www.w3.org/1999/xlink" x="0px" y="0px"
	 viewBox="0 0 223.2 107.1" style="enable-background:new 0 0 223.2 107.1;" xml:space="preserve">
<style type="text/css">
	.st0{fill:#20355A;}
	.st1{fill:#D1A42A;}
	.st2{fill-rule:evenodd;clip-rule:evenodd;fill:#20355A;}
</style>
<g>
	<path class="st0" d="M151.8,13.1c-0.4,0.2-1.1,0.4-2.1,0.4c-2.2,0-3.9-1.5-3.9-4.4c0-2.7,1.7-4.5,4.1-4.5c1,0,1.6,0.2,1.9,0.4
		l-0.3,0.9c-0.4-0.2-0.9-0.4-1.6-0.4c-1.9,0-3.1,1.3-3.1,3.6c0,2.1,1.1,3.5,3,3.5c0.6,0,1.3-0.1,1.7-0.4L151.8,13.1z"/>
	<path class="st0" d="M157.2,9.3h-3.1v3.1h3.4v0.9h-4.4V4.7h4.3v0.9h-3.2v2.7h3.1V9.3z"/>
	<path class="st0" d="M158.9,4.7h1v7.7h3.4v0.9h-4.4V4.7z"/>
	<path class="st0" d="M168.5,9.3h-3.1v3.1h3.4v0.9h-4.4V4.7h4.3v0.9h-3.2v2.7h3.1V9.3z"/>
	<path class="st0" d="M170.1,4.8c0.5-0.1,1.2-0.2,1.9-0.2c1,0,1.7,0.2,2.2,0.6c0.4,0.3,0.7,0.9,0.7,1.5c0,0.8-0.5,1.6-1.3,1.9v0
		c0.8,0.2,1.6,0.9,1.6,2.2c0,0.7-0.3,1.3-0.7,1.7c-0.5,0.6-1.4,0.8-2.7,0.8c-0.7,0-1.2-0.1-1.6-0.1V4.8z M171.2,8.4h0.9
		c1.1,0,1.7-0.6,1.7-1.5c0-1-0.7-1.4-1.7-1.4c-0.5,0-0.7,0-0.9,0.1V8.4z M171.2,12.5c0.2,0,0.5,0.1,0.9,0.1c1.1,0,2-0.4,2-1.7
		c0-1.2-0.9-1.7-2-1.7h-0.8V12.5z"/>
	<path class="st0" d="M176.5,4.8c0.5-0.1,1.3-0.2,2-0.2c1.1,0,1.8,0.2,2.3,0.7c0.4,0.4,0.6,1,0.6,1.6c0,1.1-0.7,1.9-1.5,2.2v0
		c0.6,0.2,1,0.9,1.2,1.8c0.3,1.2,0.4,2,0.6,2.4h-1.1c-0.1-0.3-0.3-1-0.5-2.1c-0.2-1.2-0.7-1.6-1.6-1.7h-1v3.7h-1V4.8z M177.5,8.8h1
		c1.1,0,1.8-0.7,1.8-1.6c0-1.1-0.7-1.6-1.8-1.6c-0.5,0-0.8,0-1,0.1V8.8z"/>
	<path class="st0" d="M184.1,10.6l-0.8,2.7h-1.1l2.7-8.6h1.2l2.7,8.6h-1.1l-0.8-2.7H184.1z M186.7,9.8l-0.8-2.5
		c-0.2-0.6-0.3-1.1-0.4-1.6h0c-0.1,0.5-0.2,1-0.4,1.6l-0.8,2.5H186.7z"/>
	<path class="st0" d="M190.6,5.6h-2.4V4.7h5.8v0.9h-2.4v7.7h-1V5.6z"/>
	<path class="st0" d="M195.9,4.7v8.6h-1V4.7H195.9z"/>
	<path class="st0" d="M197.7,13.3V4.7h1.1l2.5,4.4c0.6,1,1,1.9,1.4,2.8l0,0c-0.1-1.2-0.1-2.2-0.1-3.5V4.7h1v8.6h-1L200.1,9
		c-0.5-1-1.1-2-1.5-2.9l0,0c0.1,1.1,0.1,2.1,0.1,3.6v3.7H197.7z"/>
	<path class="st0" d="M211.4,13c-0.5,0.2-1.4,0.5-2.4,0.5c-1.2,0-2.2-0.3-2.9-1.1c-0.7-0.7-1.1-1.9-1.1-3.2c0-2.6,1.6-4.5,4.3-4.5
		c0.9,0,1.6,0.2,2,0.4l-0.3,0.9c-0.4-0.2-0.9-0.4-1.7-0.4c-1.9,0-3.2,1.3-3.2,3.5c0,2.2,1.2,3.5,3,3.5c0.7,0,1.1-0.1,1.4-0.2V9.7
		h-1.6V8.8h2.6V13z"/>
</g>
<g>
	<g>
		<polygon class="st1" points="182.5,46.7 182.5,46.6 182.5,46.6 		"/>
	</g>
	<g>
		<path class="st1" d="M185.8,51.2c-0.5-0.6-1-1.2-1.5-1.7c-2.4-2.6-5.3-4.7-8.5-6.3c-3-1.5-6.2-2.6-9.7-3.1L179,23.1l4.4-5.8h-7.3
			h-30.4v5.7h26.1l-0.1,0.2l-12.6,16.6l-5.2,6.9c2.4-0.7,5-1.1,7.6-1.1c0.2,0,0.4,0,0.6,0l0,0c6.1,0.1,11.6,2.4,15.9,6
			c0.1,0.1,0.2,0.1,0.2,0.2c0.2,0.2,0.4,0.3,0.6,0.5c0.2,0.2,0.5,0.4,0.7,0.7c0,0,0.1,0,0.1,0.1c4.7,4.6,7.6,11.1,7.6,18.2
			c0,6.2-2.2,11.9-5.9,16.3c-4.7,5.7-11.8,9.3-19.7,9.3l-16.1,0c0,0,0,0,0,0H9.4V62.5h4.8v-5.8H3.6v0v5.7v34.2v5.8h5.8h150.4
			c-0.1,0-0.2,0-0.3,0c0.6,0,1.2,0,1.9,0c0.5,0,0.9,0,1.4,0v0c16.7-0.7,30-14.5,30-31.4c0-3.7-0.7-7.3-1.9-10.7
			C189.8,57,188,53.9,185.8,51.2z M157.8,102.4C157.8,102.4,157.8,102.4,157.8,102.4C157.8,102.4,157.8,102.4,157.8,102.4z"/>
	</g>
	<g>
		<path class="st1" d="M198.2,17.5c-11.8,0-21.4,9.6-21.4,21.4c0,1.3,0.1,2.5,0.3,3.7c3.1,1.6,5.8,3.7,8.2,6.1
			c-2.1-2.7-3.3-6.1-3.3-9.8c0-9,7.3-16.2,16.2-16.2s16.2,7.3,16.2,16.2c0,9-7.3,16.2-16.2,16.2c-4.5,0-8.5-1.8-11.5-4.7
			c2.2,2.6,3.9,5.7,5.1,8.9c2,0.6,4.2,1,6.4,1c11.8,0,21.4-9.6,21.4-21.4C219.6,27.1,210,17.5,198.2,17.5z"/>
	</g>
</g>
<g>
	<path class="st2" d="M19.3,89.4l0.4-2.2h1.8l0.4,2.2h1.6l-1.8-8.7h-2l-1.9,8.7H19.3z M20.4,83.5c0-0.2,0.1-0.4,0.1-0.6
		c0-0.2,0-0.4,0.1-0.6c0-0.2,0-0.4,0-0.6h0c0,0.2,0,0.4,0.1,0.6c0,0.2,0,0.4,0.1,0.6c0,0.2,0,0.4,0.1,0.6l0.4,2.5H20L20.4,83.5z"/>
	<rect x="24.3" y="80.8" class="st2" width="0.8" height="8.7"/>
	<path class="st2" d="M27.6,81.3h-0.8V83H26v0.8h0.8v4.6c0,0.5,0.1,0.8,0.2,0.9c0.2,0.1,0.4,0.2,0.6,0.2h0.9v-0.8H28
		c-0.2,0-0.3-0.1-0.4-0.2c0-0.1,0-0.2,0-0.3v-4.4h1V83h-1V81.3z"/>
	<path class="st2" d="M30.1,85.6c0-0.3,0-0.5,0.1-0.8c0-0.3,0.1-0.6,0.3-0.8c0.1-0.2,0.4-0.3,0.7-0.3c0.3,0,0.5,0.1,0.7,0.3
		c0.1,0.2,0.2,0.5,0.2,0.8c0,0.3,0,0.6,0.1,0.8H30.1z M32.2,87.3c0,0.4,0,0.7-0.2,1c-0.1,0.3-0.4,0.5-0.8,0.5
		c-0.4,0-0.7-0.2-0.8-0.5c-0.1-0.3-0.2-0.6-0.3-1c0-0.4,0-0.7,0-1H33c0-0.5,0-1-0.1-1.6c0-0.5-0.2-1-0.5-1.3
		c-0.3-0.4-0.7-0.5-1.3-0.6c-0.5,0-0.9,0.2-1.2,0.6c-0.3,0.4-0.5,0.8-0.6,1.3c-0.1,0.5-0.1,1-0.1,1.5c0,0.9,0.1,1.5,0.3,2
		c0.2,0.5,0.4,0.8,0.7,1.1c0.3,0.2,0.6,0.3,1,0.3c0.6,0,1.1-0.2,1.4-0.7c0.3-0.4,0.4-1,0.4-1.6H32.2z"/>
	<path class="st2" d="M35.2,83h-0.8v6.4h0.8v-3.9c0-0.6,0.2-1,0.5-1.4c0.3-0.3,0.7-0.4,1.3-0.3v-0.9c-0.4,0-0.8,0-1.1,0.2
		c-0.3,0.2-0.5,0.5-0.7,0.9h0V83z"/>
	<path class="st2" d="M38.6,83h-0.8v6.4h0.8v-4.3c0-0.2,0-0.4,0.1-0.6c0-0.2,0.2-0.4,0.3-0.5c0.1-0.1,0.2-0.2,0.4-0.3
		c0.1-0.1,0.3-0.1,0.5-0.1c0.3,0,0.6,0.1,0.7,0.3c0.1,0.2,0.2,0.5,0.2,0.8v4.7h0.8v-5c0-0.6-0.1-1-0.4-1.2c-0.3-0.3-0.6-0.4-1.1-0.4
		c-0.3,0-0.6,0.1-0.8,0.2c-0.2,0.1-0.5,0.4-0.7,0.6h0V83z"/>
	<path class="st2" d="M45.3,87.5c0,0.3-0.1,0.6-0.2,0.8c-0.1,0.2-0.3,0.3-0.4,0.4c-0.2,0.1-0.3,0.1-0.4,0.1c-0.3,0-0.6-0.1-0.7-0.3
		c-0.1-0.2-0.2-0.4-0.2-0.8c0-0.2,0-0.4,0.1-0.6c0.1-0.2,0.2-0.4,0.4-0.5c0.2-0.1,0.5-0.2,0.7-0.3c0.2-0.1,0.4-0.2,0.7-0.4V87.5z
		 M46.7,88.8c-0.1,0-0.1,0-0.2,0s-0.1,0-0.2,0c-0.1,0-0.1-0.1-0.1-0.2c0-0.1,0-0.2,0-0.3v-3.7c0-0.1,0-0.2,0-0.5
		c0-0.3-0.2-0.5-0.4-0.8c-0.2-0.3-0.6-0.4-1.2-0.4c-0.6,0-1,0.1-1.3,0.5c-0.3,0.3-0.4,0.8-0.4,1.5h0.8c0-0.4,0-0.7,0.1-0.8
		c0.1-0.2,0.4-0.3,0.7-0.3c0.3,0,0.6,0.1,0.7,0.2c0.1,0.2,0.2,0.4,0.2,0.8c0,0.2,0,0.3,0,0.4c0,0.1-0.1,0.2-0.2,0.3
		c0,0-0.2,0.1-0.4,0.2c-0.2,0.1-0.5,0.2-0.7,0.3c-0.3,0.1-0.5,0.2-0.7,0.3c-0.3,0.1-0.5,0.3-0.6,0.5c-0.1,0.2-0.2,0.4-0.2,0.6
		c0,0.2,0,0.3,0,0.4c0,0.6,0.1,1,0.3,1.4c0.2,0.3,0.6,0.5,1.2,0.5c0.3,0,0.6-0.1,0.8-0.3c0.2-0.2,0.4-0.4,0.5-0.7h0
		c0,0.4,0.1,0.7,0.3,0.8c0.2,0.1,0.4,0.1,0.8,0.1c0,0,0.1,0,0.1,0c0,0,0.1,0,0.1,0V88.8z"/>
	<path class="st2" d="M48.7,81.3h-0.8V83h-0.8v0.8h0.8v4.6c0,0.5,0.1,0.8,0.2,0.9c0.2,0.1,0.4,0.2,0.6,0.2h0.9v-0.8h-0.6
		c-0.2,0-0.3-0.1-0.4-0.2c0-0.1,0-0.2,0-0.3v-4.4h1V83h-1V81.3z"/>
	<path class="st2" d="M51.5,83h-0.8v6.4h0.8V83z M51.5,80.8h-0.8v1.2h0.8V80.8z"/>
	<polygon class="st2" points="54.1,89.4 55,89.4 56.8,83 56,83 54.6,88.7 54.6,88.7 53.2,83 52.4,83 	"/>
	<path class="st2" d="M58.2,85.6c0-0.3,0-0.5,0.1-0.8c0-0.3,0.1-0.6,0.3-0.8c0.1-0.2,0.4-0.3,0.7-0.3c0.3,0,0.5,0.1,0.7,0.3
		c0.1,0.2,0.2,0.5,0.3,0.8c0,0.3,0,0.6,0,0.8H58.2z M60.3,87.3c0,0.4,0,0.7-0.2,1c-0.1,0.3-0.4,0.5-0.8,0.5c-0.4,0-0.7-0.2-0.8-0.5
		c-0.1-0.3-0.2-0.6-0.2-1c0-0.4,0-0.7,0-1h2.9c0-0.5,0-1-0.1-1.6c0-0.5-0.2-1-0.5-1.3c-0.3-0.4-0.7-0.5-1.3-0.6
		c-0.5,0-0.9,0.2-1.2,0.6c-0.3,0.4-0.5,0.8-0.6,1.3c-0.1,0.5-0.1,1-0.1,1.5c0,0.9,0.1,1.5,0.2,2c0.2,0.5,0.4,0.8,0.7,1.1
		c0.3,0.2,0.6,0.3,1,0.3c0.6,0,1.1-0.2,1.4-0.7c0.3-0.4,0.4-1,0.4-1.6H60.3z"/>
	<path class="st2" d="M66.5,88.2V82h1c0.4,0,0.7,0.2,0.9,0.7c0.1,0.4,0.2,1.2,0.2,2.2c0,0.8,0,1.5-0.1,2c-0.1,0.5-0.2,0.8-0.4,1
		c-0.2,0.2-0.5,0.3-1,0.3H66.5z M67.7,89.4c0.2,0,0.4,0,0.6,0c0.2,0,0.4-0.1,0.5-0.2c0.4-0.3,0.7-0.6,0.9-1.1c0.2-0.5,0.3-1,0.3-1.6
		c0-0.6,0.1-1.2,0-1.7c0-0.7,0-1.3-0.1-1.8c-0.1-0.5-0.2-0.9-0.3-1.2c-0.2-0.4-0.5-0.7-0.8-0.8c-0.3-0.1-0.5-0.2-0.7-0.2H65v8.7
		H67.7z"/>
	<path class="st2" d="M72.3,83h-0.8v6.4h0.8V83z M72.3,80.8h-0.8v1.2h0.8V80.8z"/>
	<path class="st2" d="M77.1,84.7c0-0.7-0.1-1.1-0.5-1.4c-0.3-0.3-0.8-0.5-1.4-0.5c-0.5,0-0.9,0.2-1.3,0.5c-0.3,0.3-0.5,0.8-0.5,1.3
		c0,0.5,0.1,0.9,0.4,1.2c0.3,0.2,0.6,0.5,1.1,0.6c0.2,0.1,0.4,0.2,0.7,0.3c0.2,0.1,0.4,0.2,0.6,0.3c0.2,0.1,0.2,0.4,0.2,0.7
		c0,0.4-0.1,0.7-0.3,0.8c-0.2,0.2-0.5,0.3-0.8,0.2c-0.4,0-0.7-0.1-0.8-0.3c-0.2-0.2-0.2-0.5-0.2-0.9h-0.8c0,0.2,0,0.4,0,0.7
		c0,0.2,0.1,0.5,0.3,0.7c0.2,0.2,0.4,0.4,0.7,0.5c0.3,0.1,0.6,0.2,0.8,0.1c0.6,0,1.1-0.2,1.5-0.5c0.4-0.3,0.5-0.8,0.5-1.5
		c0-0.4-0.1-0.7-0.3-0.9c-0.2-0.2-0.4-0.4-0.6-0.5c-0.3-0.1-0.5-0.3-0.8-0.4c-0.3-0.1-0.6-0.2-0.8-0.4c-0.2-0.1-0.4-0.4-0.4-0.8
		c0-0.3,0.1-0.6,0.3-0.7c0.2-0.2,0.4-0.2,0.7-0.2c0.4,0,0.6,0.1,0.8,0.3c0.1,0.2,0.2,0.5,0.2,0.8H77.1z"/>
	<path class="st2" d="M81.6,86.1c0,0.9-0.1,1.6-0.3,2c-0.2,0.5-0.5,0.7-0.9,0.7c-0.4,0-0.7-0.2-0.8-0.5c-0.2-0.3-0.3-0.7-0.3-1.1
		c0-0.4,0-0.8,0-1.1c0-0.3,0-0.7,0-1.1c0-0.4,0.1-0.7,0.3-1c0.2-0.3,0.4-0.5,0.8-0.5c0.4,0,0.6,0.2,0.8,0.5c0.2,0.3,0.3,0.6,0.3,1
		C81.6,85.5,81.6,85.8,81.6,86.1 M79.3,88.8L79.3,88.8c0.2,0.3,0.3,0.5,0.5,0.6c0.2,0.1,0.4,0.2,0.7,0.2c0.5,0,0.9-0.2,1.2-0.6
		c0.3-0.4,0.5-0.9,0.6-1.4c0.1-0.6,0.1-1.2,0.1-1.8c0-0.5-0.1-0.9-0.2-1.4c-0.1-0.4-0.3-0.8-0.6-1.1c-0.3-0.3-0.7-0.5-1.2-0.5
		c-0.2,0-0.5,0.1-0.7,0.2c-0.2,0.1-0.4,0.4-0.5,0.7h0V83h-0.8v8.6h0.8V88.8z"/>
	<path class="st2" d="M86.7,89.4h0.8V83h-0.8v4.1c0,0.2,0,0.4-0.1,0.6c0,0.2-0.1,0.4-0.2,0.5c-0.1,0.2-0.3,0.3-0.4,0.4
		c-0.2,0.1-0.4,0.1-0.6,0.1c-0.3,0-0.5-0.1-0.6-0.2c-0.1-0.1-0.2-0.4-0.2-0.6v-5h-0.9v5c0,0.6,0.1,1,0.4,1.2
		c0.3,0.3,0.6,0.4,1.1,0.4c0.3,0,0.6-0.1,0.8-0.3s0.4-0.4,0.6-0.8h0V89.4z"/>
	<path class="st2" d="M90,81.3h-0.8V83h-0.8v0.8h0.8v4.6c0,0.5,0.1,0.8,0.3,0.9c0.2,0.1,0.4,0.2,0.6,0.2H91v-0.8h-0.6
		c-0.2,0-0.3-0.1-0.4-0.2c0-0.1,0-0.2,0-0.3v-4.4h1V83h-1V81.3z"/>
	<path class="st2" d="M92.5,85.6c0-0.3,0-0.5,0.1-0.8c0-0.3,0.1-0.6,0.3-0.8c0.1-0.2,0.4-0.3,0.7-0.3c0.3,0,0.6,0.1,0.7,0.3
		c0.1,0.2,0.2,0.5,0.2,0.8c0,0.3,0,0.6,0,0.8H92.5z M94.6,87.3c0,0.4,0,0.7-0.2,1c-0.1,0.3-0.4,0.5-0.8,0.5c-0.4,0-0.6-0.2-0.8-0.5
		c-0.1-0.3-0.2-0.6-0.2-1c0-0.4,0-0.7,0-1h2.9c0-0.5,0-1-0.1-1.6c-0.1-0.5-0.2-1-0.5-1.3c-0.3-0.4-0.7-0.5-1.3-0.6
		c-0.5,0-0.9,0.2-1.2,0.6c-0.3,0.4-0.5,0.8-0.6,1.3c-0.1,0.5-0.1,1-0.1,1.5c0,0.9,0.1,1.5,0.2,2c0.2,0.5,0.4,0.8,0.7,1.1
		c0.3,0.2,0.6,0.3,1,0.3c0.6,0,1.1-0.2,1.4-0.7c0.3-0.4,0.4-1,0.4-1.6H94.6z"/>
	<path class="st2" d="M101,85.7c0.2,0,0.4,0,0.6,0c0.2,0,0.4,0,0.6,0.1c0.2,0.1,0.4,0.3,0.4,0.6c0,0.3,0.1,0.6,0.1,0.8
		c0,0.2,0,0.4,0,0.7c0,0.3,0,0.5,0,0.8c0,0.3,0.1,0.5,0.1,0.7h1.6v-0.2c-0.1-0.1-0.2-0.2-0.2-0.5c0-0.3-0.1-0.5-0.1-0.8
		c0-0.3,0-0.6,0-0.9v-0.5c0-0.4-0.1-0.8-0.2-1c-0.2-0.3-0.5-0.5-0.9-0.5v0c0.5-0.1,0.8-0.3,1-0.7c0.2-0.4,0.2-0.9,0.2-1.3
		c0-0.8-0.2-1.3-0.7-1.6c-0.4-0.3-1-0.5-1.6-0.4h-2.8v8.7h1.5v-3.7H101z M100.7,82h1.1c0.3,0,0.5,0.1,0.7,0.2
		c0.2,0.1,0.3,0.5,0.3,0.9c0,0.4-0.1,0.7-0.3,0.9c-0.2,0.2-0.4,0.3-0.6,0.3h-1.2V82z"/>
	<path class="st2" d="M106.3,85.6c0-0.3,0-0.5,0.1-0.8c0-0.3,0.1-0.6,0.3-0.8c0.1-0.2,0.4-0.3,0.7-0.3c0.3,0,0.6,0.1,0.7,0.3
		c0.1,0.2,0.2,0.5,0.2,0.8c0,0.3,0,0.6,0,0.8H106.3z M108.4,87.3c0,0.4,0,0.7-0.2,1c-0.1,0.3-0.4,0.5-0.8,0.5
		c-0.4,0-0.7-0.2-0.8-0.5c-0.1-0.3-0.2-0.6-0.2-1c0-0.4,0-0.7,0-1h2.9c0-0.5,0-1-0.1-1.6c0-0.5-0.2-1-0.5-1.3
		c-0.3-0.4-0.7-0.5-1.3-0.6c-0.5,0-0.9,0.2-1.2,0.6c-0.3,0.4-0.5,0.8-0.6,1.3c-0.1,0.5-0.2,1-0.1,1.5c0,0.9,0.1,1.5,0.2,2
		c0.2,0.5,0.4,0.8,0.7,1.1c0.3,0.2,0.6,0.3,1,0.3c0.6,0,1.1-0.2,1.4-0.7c0.3-0.4,0.4-1,0.4-1.6H108.4z"/>
	<path class="st2" d="M113.7,84.7c0-0.7-0.1-1.1-0.5-1.4c-0.3-0.3-0.8-0.5-1.4-0.5c-0.5,0-0.9,0.2-1.3,0.5c-0.3,0.3-0.5,0.8-0.5,1.3
		c0,0.5,0.1,0.9,0.4,1.2c0.3,0.2,0.6,0.5,1.1,0.6c0.2,0.1,0.4,0.2,0.6,0.3c0.2,0.1,0.4,0.2,0.6,0.3c0.2,0.1,0.2,0.4,0.3,0.7
		c0,0.4-0.1,0.7-0.3,0.8c-0.2,0.2-0.5,0.3-0.8,0.2c-0.4,0-0.7-0.1-0.8-0.3c-0.2-0.2-0.2-0.5-0.2-0.9h-0.8c0,0.2,0,0.4,0,0.7
		c0,0.2,0.1,0.5,0.3,0.7c0.2,0.2,0.4,0.4,0.7,0.5c0.3,0.1,0.5,0.2,0.8,0.1c0.6,0,1.1-0.2,1.5-0.5c0.4-0.3,0.5-0.8,0.5-1.5
		c0-0.4-0.1-0.7-0.3-0.9c-0.2-0.2-0.4-0.4-0.6-0.5c-0.3-0.1-0.5-0.3-0.8-0.4c-0.3-0.1-0.6-0.2-0.8-0.4c-0.2-0.1-0.4-0.4-0.4-0.8
		c0-0.3,0.1-0.6,0.2-0.7c0.2-0.2,0.4-0.2,0.7-0.2c0.4,0,0.6,0.1,0.8,0.3c0.1,0.2,0.2,0.5,0.2,0.8H113.7z"/>
	<path class="st2" d="M119.1,86c0-1-0.2-1.7-0.5-2.3c-0.3-0.6-0.9-0.8-1.6-0.9c-0.7,0-1.3,0.3-1.6,0.9c-0.3,0.6-0.5,1.3-0.5,2.3
		c0,0.9,0.1,1.6,0.3,2.2c0.2,0.5,0.4,0.9,0.7,1.1c0.3,0.2,0.7,0.3,1.1,0.3c0.4,0,0.8-0.1,1.1-0.3c0.3-0.2,0.6-0.6,0.7-1.1
		C119,87.7,119.1,86.9,119.1,86 M118.3,86.3c0,0.8-0.1,1.4-0.2,1.8c-0.2,0.5-0.5,0.7-1,0.7c-0.5,0-0.8-0.2-1-0.7
		c-0.2-0.5-0.3-1.1-0.3-1.8c0-1,0.1-1.6,0.3-2.1c0.2-0.4,0.5-0.6,1-0.6c0.4,0,0.8,0.2,1,0.6C118.2,84.6,118.3,85.3,118.3,86.3"/>
	<rect x="120.4" y="80.8" class="st2" width="0.8" height="8.7"/>
	<path class="st2" d="M125.6,89.4h0.8V83h-0.8v4.1c0,0.2,0,0.4-0.1,0.6c0,0.2-0.1,0.4-0.2,0.5c-0.1,0.2-0.3,0.3-0.4,0.4
		c-0.2,0.1-0.4,0.1-0.6,0.1c-0.3,0-0.5-0.1-0.6-0.2c-0.1-0.1-0.2-0.4-0.2-0.6v-5h-0.8v5c0,0.6,0.1,1,0.4,1.2c0.2,0.3,0.6,0.4,1,0.4
		c0.3,0,0.6-0.1,0.8-0.3c0.2-0.2,0.4-0.4,0.6-0.8h0V89.4z"/>
	<path class="st2" d="M129,81.3h-0.8V83h-0.8v0.8h0.8v4.6c0,0.5,0.1,0.8,0.3,0.9c0.2,0.1,0.4,0.2,0.6,0.2h0.9v-0.8h-0.6
		c-0.2,0-0.3-0.1-0.4-0.2c0-0.1,0-0.2,0-0.3v-4.4h1V83h-1V81.3z"/>
	<path class="st2" d="M131.8,83h-0.8v6.4h0.8V83z M131.8,80.8h-0.8v1.2h0.8V80.8z"/>
	<path class="st2" d="M137.3,86c0-1-0.2-1.7-0.5-2.3c-0.3-0.6-0.9-0.8-1.6-0.9c-0.7,0-1.3,0.3-1.6,0.9c-0.3,0.6-0.5,1.3-0.5,2.3
		c0,0.9,0.1,1.6,0.3,2.2c0.2,0.5,0.4,0.9,0.7,1.1c0.3,0.2,0.7,0.3,1.1,0.3c0.4,0,0.8-0.1,1.1-0.3c0.3-0.2,0.6-0.6,0.7-1.1
		C137.2,87.7,137.3,86.9,137.3,86 M136.4,86.3c0,0.8-0.1,1.4-0.3,1.8c-0.2,0.5-0.5,0.7-1,0.7c-0.5,0-0.8-0.2-1-0.7
		c-0.2-0.5-0.3-1.1-0.3-1.8c0-1,0.1-1.6,0.3-2.1c0.2-0.4,0.5-0.6,0.9-0.6c0.4,0,0.8,0.2,1,0.6C136.3,84.6,136.4,85.3,136.4,86.3"/>
	<path class="st2" d="M139.4,83h-0.8v6.4h0.8v-4.3c0-0.2,0-0.4,0.1-0.6c0-0.2,0.2-0.4,0.3-0.5c0.1-0.1,0.2-0.2,0.4-0.3
		c0.1-0.1,0.3-0.1,0.5-0.1c0.3,0,0.6,0.1,0.7,0.3c0.1,0.2,0.2,0.5,0.2,0.8v4.7h0.8v-5c0-0.6-0.1-1-0.4-1.2c-0.3-0.3-0.6-0.4-1.1-0.4
		c-0.3,0-0.6,0.1-0.8,0.2c-0.2,0.1-0.5,0.4-0.7,0.6h0V83z"/>
	<path class="st0" d="M138.7,49.3h-13.2c-2.1,0-4.4-1.6-4.4-3.6c0-2,1.8-3.6,4-3.6h13.2c2.2,0,4,1.6,4,3.6
		C142.2,47.8,140.8,49.3,138.7,49.3"/>
	<path class="st0" d="M138.7,78.2c2.3,0,4.2-1.7,4.2-3.8c0-2.1-1.4-3.9-3.7-3.9H126c-2.3,0-4.7,1.7-4.7,3.9c0,2.1,1.9,3.8,4.2,3.8
		H138.7z"/>
	<path class="st0" d="M123.2,55.7c0-1.4-1-2.5-2.3-2.5c-1.3,0-2.3,1.1-2.3,2.5l0,8.8c0,1.4,1,2.5,2.3,2.5c1.3,0,2.3-1.1,2.3-2.5
		L123.2,55.7z"/>
	<rect x="124.9" y="50.9" class="st0" width="14.4" height="18"/>
	<g>
		<path class="st0" d="M34,33.3c0,1.8-0.1,3.8-1.7,4.9c-1.7,1.3-4.2,1.1-6.2,1.1c-2.2,0-5.3,0.3-6.8-1.6c-1.3-1.7-1.1-4.5-1.1-6.6
			v-6.6h6.5v7.5c0,0.6,0.2,1.4,1,1.4c0.9,0,1.1-1,1.1-1.8V4.5H34V33.3z"/>
		<path class="st0" d="M52.5,31.7c0,7.1-1.5,7.7-8.4,7.7c-6.4,0-8.2-0.5-8.2-7.1V4.5h7.3v27.8c0,0.7,0.2,1.3,1,1.3
			c1.4,0,1.1-1.8,1.1-2.8V4.5h7.2V31.7z"/>
		<path class="st0" d="M61.5,4.5c1.8,0,5-0.2,6.7,0.5c3.4,1.2,2.9,5.6,2.9,8.5v17.1c0,2.1,0.3,4.8-1,6.7c-1.3,1.9-3.9,1.9-6.1,1.9
			l-3.6,0.1h-6.1V4.5H61.5z M62.5,33.5c1.6,0,1.5-1.3,1.4-2.5V12.1c0-1.1-0.1-1.9-1.5-1.9h-0.7v23.3H62.5z"/>
		<rect x="73.2" y="4.5" class="st0" width="7.3" height="34.7"/>
		<path class="st0" d="M91.8,16.5v-3.9c0-0.8,0.2-2.4-1-2.4c-1.3-0.1-1.1,1.9-1.1,2.8v18.9c0,0.8,0.1,1.8,1,1.9
			c1.3,0.1,1.1-1.8,1.1-2.7v-6.4h7.3v5.5c0,2.3,0.4,5.4-1,7.4c-1.5,2.2-5,1.9-7.3,1.9c-1.6,0-4.3,0.1-5.8-0.5
			c-1.7-0.7-2.4-2.4-2.5-4.1c-0.2-1.8,0-3.5,0-5.3V15c0-2-0.1-4,0.1-6c0.2-1.6,0.8-3.2,2.3-4c1.7-0.9,4.3-0.6,6.1-0.6
			c2.2,0,5.5-0.3,7,1.6c1.3,1.6,1.2,4,1.2,5.9v4.6H91.8z"/>
		<path class="st0" d="M103.9,4.5h9l4.3,34.7h-6.8l-0.5-6.9h-3l-0.5,6.9h-6.8L103.9,4.5z M109.4,26.7l-0.4-5.4l-0.2-3.1
			c0,0-0.2-4-0.2-7.2H108c0.1,2.8-0.2,7.2-0.2,7.2l-0.2,3.1l-0.4,5.4H109.4z"/>
		<polygon class="st0" points="126.3,39.2 119,39.2 119,10.1 115.3,10.1 115.3,4.5 129.9,4.5 129.9,10.1 126.3,10.1 		"/>
		<polygon class="st0" points="138,33.4 142.1,33.4 142.1,39.2 130.7,39.2 130.7,4.5 142.1,4.5 142.1,10.1 138,10.1 138,17.3 
			142.1,17.3 142.1,22.9 138,22.9 		"/>
	</g>
	<path class="st0" d="M117.1,56.8H91.4v-8.4h2.9H95v-0.7v-5.6v-0.7h-0.7H79.8h-0.7v0.7v4.2c-0.2-1.7-0.9-3.4-2.6-4.3
		c-1.5-0.8-3.5-0.7-5.3-0.7c-0.3,0-0.6,0-0.9,0c-5.7,0-9.1,0-9.1,7.1v4.1c0,1.9,0.1,3.2,0.6,4.4H61v-1.9v-0.7h-0.7H57v-5.7h3.3H61
		v-0.7v-5.6v-0.7h-0.7H49h0h-0.7h-0.1h-7h-0.6l0,0.6l-0.8,9.6c0,0.1,0,0.2,0,0.4c0-0.2,0-0.4,0-0.6L38.9,42l0-0.6h-0.6h-7.8h-0.6
		l0,0.6l-0.7,9.4c0,0.4-0.1,0.8-0.1,1.2c0-0.6-0.1-1.1-0.1-1.1c0,0-0.6-9.6-0.6-9.6l0-0.7h-0.6h-6.9h-0.8l0.1,0.8l1.7,14.6h-3.8v5.8
		h4.4l1.6,14.3l0.1,0.6h0.6h7.9h0.6l0.1-0.6l1.1-11.7c0.2,2,1,11.7,1,11.7l0.1,0.6H36h7.9h0.6l0.1-0.6l1.8-14.3h2v14.2v0.7H49h11.3
		H61v-0.7V71v-0.7h-0.7H57v-7.8h4.1v6.2c0,0.3,0,0.6,0,0.9c0,2-0.1,4.5,1.4,6.2c1.7,1.9,4.4,1.8,6.6,1.8l0.8,0c1.8,0,3.6,0,5.4-0.3
		c1.1-0.2,2.1-0.9,2.8-1.9c1.1-1.5,1.1-3.4,1.1-5V70v-5.6c0-0.7,0-1.3-0.1-1.9h3.6v14.2v0.7h0.7h7.3h0.7v-0.7V62.5h25.7V56.8z
		 M43.2,76.1h-6.6l-1-11.4c-0.3-3.5-0.4-7.1-0.4-10.3v-0.7h-0.7h-0.7h-0.7v0.7v1.6c0,0.1,0,6.5-0.2,8.5c0,0-0.9,9.2-1.1,11.7h-6.7
		l-3.8-33.3h5.5l0.6,8.9c0,0,0.3,3.4,0.3,3.4c0.1,1.8,0.1,4.4,0.1,6.3c0,1,0,1.8,0,2.2c0,0,0.1,1.2,0.1,1.2l0,0.7h0.7h0.7H30v-0.7
		v-1.2c0-4.5,0.1-8.4,0.4-12l0.7-8.8h6.5l0.6,8.7c0.5,6.7,0.4,11.8,0.4,11.9v1.4v0.7h0.7H40h0.7v-0.7c0-0.2,0-0.3,0-0.5
		c0-0.2,0-0.4,0-0.6c0-0.1,0.1-8.6,0.4-11.9c0,0,0.6-6.8,0.7-8.9h5.6L43.2,76.1z M47,56.8l1.3-10.1v10.1H47z M59.6,71.7v4.4h-9.9
		V42.8h9.9V47h-3.3h-0.7v0.7v7.1v0.7h0.7h3.3v4.3h-3.3h-0.7v0.7V71v0.7h0.7H59.6z M70.5,64.1v5.5c0,0.2,0,0.9-0.3,0.9
		c-0.2,0-0.4-0.1-0.4-1.3v-6.5C70.4,63.1,70.5,63.4,70.5,64.1z M77,74.6c-0.5,0.7-1.2,1.2-1.9,1.4c-1.6,0.3-3.4,0.3-5.1,0.3l-0.8,0
		c-2,0-4.3,0.1-5.5-1.3c-1.2-1.3-1.1-3.4-1.1-5.2c0-0.3,0-0.6,0-0.9v-5.5h5.9v6.1c0,0.7,0,2.7,1.8,2.7c0.4,0,1.7-0.2,1.7-2.3v-5.5
		c0-1.5-0.6-2.1-1.8-2.8l0,0c0,0-0.1,0-0.1,0c-0.3-0.1-0.6-0.3-0.8-0.4c0,0-3.1-1.7-3.1-1.7c-3.2-1.8-3.6-3-3.6-6.7v-4.1
		c0-5.7,1.9-5.7,7.7-5.7c0.3,0,0.6,0,0.9,0c1.6,0,3.4-0.1,4.7,0.6c2,1,2,3.7,2,5.8v0.1v4.2h-5.9V50c0-0.1,0-0.2,0-0.3
		c0-0.8,0.1-2.6-1.6-2.8c-0.6-0.1-1,0.2-1.2,0.4c-0.7,0.6-0.7,1.7-0.7,2.5V50v2.5c0,1.7,0.9,2.3,2,2.9c0,0,3.1,1.7,3.1,1.7
		c3.8,2.1,4.3,3,4.3,7.3V70v0.4C77.8,72,77.8,73.5,77,74.6z M70.5,49.7c0,0.1,0,0.2,0,0.3v3.8c-0.5-0.4-0.7-0.6-0.7-1.3V50v-0.2
		c0-0.4,0-1.2,0.2-1.4c0,0,0,0,0.2,0C70.5,48.4,70.5,48.9,70.5,49.7z M75.7,56.8c-0.4-0.3-0.9-0.6-1.5-0.9c0,0-1.1-0.6-2-1.1h6.4
		h0.7V54v-4.9V49c0-0.2,0-0.4,0-0.6h0.6h2.9v8.4H75.7z M90,47v0.7v28.4h-5.9V47.7V47h-0.7h-2.9v-4.2h13.2V47h-2.9H90z"/>
</g>
</svg>
